{
  "accessors": [
    {
      "bufferView": 2,
      "componentType": 5126,
      "count": 11040,
      "max": [
        1.0097391605377197,
        1.011030673980713,
        1.0093975067138672
      ],
      "min": [
        -1.0097391605377197,
        -1.011030673980713,
        -1.0093975067138672
      ],
      "type": "VEC3"
    },
    {
      "bufferView": 2,
      "byteOffset": 132480,
      "componentType": 5126,
      "count": 11040,
      "type": "VEC3"
    },
    {
      "bufferView": 1,
      "componentType": 5126,
      "count": 11040,
      "type": "VEC2"
    },
    {
      "bufferView": 0,
      "componentType": 5125,
      "count": 16320,
      "type": "SCALAR"
    },
    {
      "bufferView": 2,
      "byteOffset": 264960,
      "componentType": 5126,
      "count": 44160,
      "max": [
        1.0097391605377197,
        1.011030673980713,
        1.0093975067138672
      ],
      "min": [
        -1.0097391605377197,
        -1.011030673980713,
        -1.0093975067138672
      ],
      "type": "VEC3"
    },
    {
      "bufferView": 2,
      "byteOffset": 794880,
      "componentType": 5126,
      "count": 44160,
      "type": "VEC3"
    },
    {
      "bufferView": 1,
      "byteOffset": 88320,
      "componentType": 5126,
      "count": 44160,
      "type": "VEC2"
    },
    {
      "bufferView": 0,
      "byteOffset": 65280,
      "componentType": 5125,
      "count": 66240,
      "type": "SCALAR"
    },
    {
      "bufferView": 4,
      "componentType": 5126,
      "count": 499,
      "max": [
        16.66666603088379
      ],
      "min": [
        0.0416666679084301
      ],
      "type": "SCALAR"
    },
    {
      "bufferView": 3,
      "componentType": 5126,
      "count": 499,
      "type": "VEC4"
    }
  ],
  "animations": [
    {
      "channels": [
        {
          "sampler": 0,
          "target": {
            "node": 4,
            "path": "rotation"
          }
        }
      ],
      "name": "Take 001",
      "samplers": [
        {
          "input": 8,
          "interpolation": "LINEAR",
          "output": 9
        }
      ]
    }
  ],
  "asset": {
    "generator": "fab-model-conversion",
    "version": "2.0"
  },
  "bufferViews": [
    {
      "buffer": 0,
      "byteLength": 330240,
      "target": 34963
    },
    {
      "buffer": 0,
      "byteLength": 441600,
      "byteOffset": 330240,
      "byteStride": 8,
      "target": 34962
    },
    {
      "buffer": 0,
      "byteLength": 1324800,
      "byteOffset": 771840,
      "byteStride": 12,
      "target": 34962
    },
    {
      "buffer": 0,
      "byteLength": 7984,
      "byteOffset": 2096640
    },
    {
      "buffer": 0,
      "byteLength": 1996,
      "byteOffset": 2104624
    }
  ],
  "buffers": [
    {
      "byteLength": 2106620,
      "uri": "scene.bin"
    }
  ],
  "extensionsUsed": [
    "KHR_materials_specular"
  ],
  "materials": [
    {
      "doubleSided": true,
      "extensions": {
        "KHR_materials_specular": {
          "specularFactor": 0
        }
      },
      "name": "disco_mat",
      "pbrMetallicRoughness": {
        "baseColorFactor": [
          0.8482712485824304,
          0.0862983147370682,
          0.6101872942805078,
          1.0
        ],
        "roughnessFactor": 0.0
      }
    },
    {
      "doubleSided": true,
      "extensions": {
        "KHR_materials_specular": {
          "specularFactor": 0
        }
      },
      "name": "non_disco_mat",
      "pbrMetallicRoughness": {
        "baseColorFactor": [
          0.0077384440943840584,
          0.0077384440943840584,
          0.0077384440943840584,
          1.0
        ],
        "roughnessFactor": 0.6692987553311984
      }
    }
  ],
  "meshes": [
    {
      "name": "pSphere3_disco_mat_0",
      "primitives": [
        {
          "attributes": {
            "NORMAL": 1,
            "POSITION": 0,
            "TEXCOORD_0": 2
          },
          "indices": 3,
          "material": 0,
          "mode": 4
        }
      ]
    },
    {
      "name": "pSphere3_non_disco_mat_0",
      "primitives": [
        {
          "attributes": {
            "NORMAL": 5,
            "POSITION": 4,
            "TEXCOORD_0": 6
          },
          "indices": 7,
          "material": 1,
          "mode": 4
        }
      ]
    }
  ],
  "nodes": [
    {
      "children": [
        1
      ],
      "matrix": [
        1.0,
        0.0,
        0.0,
        0.0,
        0.0,
        2.220446049250313e-16,
        -1.0,
        0.0,
        0.0,
        1.0,
        2.220446049250313e-16,
        0.0,
        0.0,
        0.0,
        0.0,
        1.0
      ],
      "name": "Sketchfab_model"
    },
    {
      "children": [
        2
      ],
      "matrix": [
        1.0,
        0.0,
        0.0,
        0.0,
        0.0,
        0.0,
        1.0,
        0.0,
        0.0,
        -1.0,
        0.0,
        0.0,
        0.0,
        0.0,
        0.0,
        1.0
      ],
      "name": "38090a759c5a4c6bb322ead3c3040581.fbx"
    },
    {
      "children": [
        3
      ],
      "name": "Object_2"
    },
    {
      "children": [
        4
      ],
      "name": "RootNode",
      "rotation": [
        0.0,
        0.0,
        0.0,
        1.0
      ],
      "scale": [
        1.0,
        1.0,
        1.0
      ],
      "translation": [
        0.0,
        0.0,
        0.0
      ]
    },
    {
      "children": [
        5,
        6
      ],
      "name": "pSphere3",
      "rotation": [
        0.0,
        0.614212691783905,
        0.0,
        0.789140522480011
      ],
      "scale": [
        1.0,
        1.0,
        1.0
      ],
      "translation": [
        0.0001150965690612793,
        -3.719329833984375e-05,
        0.0003618597984313965
      ]
    },
    {
      "mesh": 0,
      "name": "pSphere3_disco_mat_0"
    },
    {
      "mesh": 1,
      "name": "pSphere3_non_disco_mat_0"
    }
  ],
  "scene": 0,
  "scenes": [
    {
      "name": "Sketchfab_Scene",
      "nodes": [
        0
      ]
    }
  ]
}
